<svg id="visual" viewBox="0 0 960 300" width="960" height="300" xmlns="http://www.w3.org/2000/svg" xmlns:xlink="http://www.w3.org/1999/xlink" version="1.1"><rect x="0" y="0" width="960" height="300" fill="#00CCCC"></rect><path d="M0 171L8.8 178.2C17.7 185.3 35.3 199.7 53.2 206.8C71 214 89 214 106.8 212.7C124.7 211.3 142.3 208.7 160 209.5C177.7 210.3 195.3 214.7 213.2 216.2C231 217.7 249 216.3 266.8 215.5C284.7 214.7 302.3 214.3 320 212.5C337.7 210.7 355.3 207.3 373.2 208.5C391 209.7 409 215.3 426.8 218.2C444.7 221 462.3 221 480 218C497.7 215 515.3 209 533.2 210.2C551 211.3 569 219.7 586.8 220.2C604.7 220.7 622.3 213.3 640 210.8C657.7 208.3 675.3 210.7 693.2 207.3C711 204 729 195 746.8 195.7C764.7 196.3 782.3 206.7 800 205.2C817.7 203.7 835.3 190.3 853.2 192C871 193.7 889 210.3 906.8 212.7C924.7 215 942.3 203 951.2 197L960 191L960 301L951.2 301C942.3 301 924.7 301 906.8 301C889 301 871 301 853.2 301C835.3 301 817.7 301 800 301C782.3 301 764.7 301 746.8 301C729 301 711 301 693.2 301C675.3 301 657.7 301 640 301C622.3 301 604.7 301 586.8 301C569 301 551 301 533.2 301C515.3 301 497.7 301 480 301C462.3 301 444.7 301 426.8 301C409 301 391 301 373.2 301C355.3 301 337.7 301 320 301C302.3 301 284.7 301 266.8 301C249 301 231 301 213.2 301C195.3 301 177.7 301 160 301C142.3 301 124.7 301 106.8 301C89 301 71 301 53.2 301C35.3 301 17.7 301 8.8 301L0 301Z" fill="#acecec"></path><path d="M0 209L8.8 208.7C17.7 208.3 35.3 207.7 53.2 207.7C71 207.7 89 208.3 106.8 207.5C124.7 206.7 142.3 204.3 160 207.7C177.7 211 195.3 220 213.2 226.7C231 233.3 249 237.7 266.8 237.2C284.7 236.7 302.3 231.3 320 230.2C337.7 229 355.3 232 373.2 227.3C391 222.7 409 210.3 426.8 203.3C444.7 196.3 462.3 194.7 480 201.3C497.7 208 515.3 223 533.2 226.3C551 229.7 569 221.3 586.8 218.7C604.7 216 622.3 219 640 218.5C657.7 218 675.3 214 693.2 212.5C711 211 729 212 746.8 214.3C764.7 216.7 782.3 220.3 800 217.7C817.7 215 835.3 206 853.2 206.3C871 206.7 889 216.3 906.8 220.3C924.7 224.3 942.3 222.7 951.2 221.8L960 221L960 301L951.2 301C942.3 301 924.7 301 906.8 301C889 301 871 301 853.2 301C835.3 301 817.7 301 800 301C782.3 301 764.7 301 746.8 301C729 301 711 301 693.2 301C675.3 301 657.7 301 640 301C622.3 301 604.7 301 586.8 301C569 301 551 301 533.2 301C515.3 301 497.7 301 480 301C462.3 301 444.7 301 426.8 301C409 301 391 301 373.2 301C355.3 301 337.7 301 320 301C302.3 301 284.7 301 266.8 301C249 301 231 301 213.2 301C195.3 301 177.7 301 160 301C142.3 301 124.7 301 106.8 301C89 301 71 301 53.2 301C35.3 301 17.7 301 8.8 301L0 301Z" fill="#c2f1f0"></path><path d="M0 247L8.8 243.8C17.7 240.7 35.3 234.3 53.2 235.5C71 236.7 89 245.3 106.8 244.7C124.7 244 142.3 234 160 229.3C177.7 224.7 195.3 225.3 213.2 228.7C231 232 249 238 266.8 241C284.7 244 302.3 244 320 246C337.7 248 355.3 252 373.2 250C391 248 409 240 426.8 235.7C444.7 231.3 462.3 230.7 480 228C497.7 225.3 515.3 220.7 533.2 219.8C551 219 569 222 586.8 228.7C604.7 235.3 622.3 245.7 640 247.2C657.7 248.7 675.3 241.3 693.2 235.5C711 229.7 729 225.3 746.8 227.3C764.7 229.3 782.3 237.7 800 237C817.7 236.3 835.3 226.7 853.2 223.2C871 219.7 889 222.3 906.8 224.2C924.7 226 942.3 227 951.2 227.5L960 228L960 301L951.2 301C942.3 301 924.7 301 906.8 301C889 301 871 301 853.2 301C835.3 301 817.7 301 800 301C782.3 301 764.7 301 746.8 301C729 301 711 301 693.2 301C675.3 301 657.7 301 640 301C622.3 301 604.7 301 586.8 301C569 301 551 301 533.2 301C515.3 301 497.7 301 480 301C462.3 301 444.7 301 426.8 301C409 301 391 301 373.2 301C355.3 301 337.7 301 320 301C302.3 301 284.7 301 266.8 301C249 301 231 301 213.2 301C195.3 301 177.7 301 160 301C142.3 301 124.7 301 106.8 301C89 301 71 301 53.2 301C35.3 301 17.7 301 8.8 301L0 301Z" fill="#d7f6f5"></path><path d="M0 254L8.8 254.3C17.7 254.7 35.3 255.3 53.2 257.5C71 259.7 89 263.3 106.8 264.7C124.7 266 142.3 265 160 260C177.7 255 195.3 246 213.2 241.5C231 237 249 237 266.8 239.2C284.7 241.3 302.3 245.7 320 251.8C337.7 258 355.3 266 373.2 266.2C391 266.3 409 258.7 426.8 255.2C444.7 251.7 462.3 252.3 480 253.3C497.7 254.3 515.3 255.7 533.2 257.2C551 258.7 569 260.3 586.8 260.2C604.7 260 622.3 258 640 258.7C657.7 259.3 675.3 262.7 693.2 263.3C711 264 729 262 746.8 258.2C764.7 254.3 782.3 248.7 800 249.8C817.7 251 835.3 259 853.2 262C871 265 889 263 906.8 258.2C924.7 253.3 942.3 245.7 951.2 241.8L960 238L960 301L951.2 301C942.3 301 924.7 301 906.8 301C889 301 871 301 853.2 301C835.3 301 817.7 301 800 301C782.3 301 764.7 301 746.8 301C729 301 711 301 693.2 301C675.3 301 657.7 301 640 301C622.3 301 604.7 301 586.8 301C569 301 551 301 533.2 301C515.3 301 497.7 301 480 301C462.3 301 444.7 301 426.8 301C409 301 391 301 373.2 301C355.3 301 337.7 301 320 301C302.3 301 284.7 301 266.8 301C249 301 231 301 213.2 301C195.3 301 177.7 301 160 301C142.3 301 124.7 301 106.8 301C89 301 71 301 53.2 301C35.3 301 17.7 301 8.8 301L0 301Z" fill="#ebfbfa"></path><path d="M0 283L8.8 282.8C17.7 282.7 35.3 282.3 53.2 282.8C71 283.3 89 284.7 106.8 284.7C124.7 284.7 142.3 283.3 160 281.8C177.7 280.3 195.3 278.7 213.2 275.5C231 272.3 249 267.7 266.8 266.8C284.7 266 302.3 269 320 271.5C337.7 274 355.3 276 373.2 274.7C391 273.3 409 268.7 426.8 265.7C444.7 262.7 462.3 261.3 480 265.3C497.7 269.3 515.3 278.7 533.2 280.3C551 282 569 276 586.8 273C604.7 270 622.3 270 640 272.3C657.7 274.7 675.3 279.3 693.2 278.2C711 277 729 270 746.8 267.3C764.7 264.7 782.3 266.3 800 268.7C817.7 271 835.3 274 853.2 273.2C871 272.3 889 267.7 906.8 265C924.7 262.3 942.3 261.7 951.2 261.3L960 261L960 301L951.2 301C942.3 301 924.7 301 906.8 301C889 301 871 301 853.2 301C835.3 301 817.7 301 800 301C782.3 301 764.7 301 746.8 301C729 301 711 301 693.2 301C675.3 301 657.7 301 640 301C622.3 301 604.7 301 586.8 301C569 301 551 301 533.2 301C515.3 301 497.7 301 480 301C462.3 301 444.7 301 426.8 301C409 301 391 301 373.2 301C355.3 301 337.7 301 320 301C302.3 301 284.7 301 266.8 301C249 301 231 301 213.2 301C195.3 301 177.7 301 160 301C142.3 301 124.7 301 106.8 301C89 301 71 301 53.2 301C35.3 301 17.7 301 8.8 301L0 301Z" fill="#ffffff"></path></svg>