<svg id="visual" viewBox="0 0 960 300" width="960" height="300" xmlns="http://www.w3.org/2000/svg" xmlns:xlink="http://www.w3.org/1999/xlink" version="1.1"><rect x="0" y="0" width="960" height="300" fill="#001220"></rect><path d="M0 221L10 217.5C20 214 40 207 60 205.5C80 204 100 208 120 210.8C140 213.7 160 215.3 180 214.3C200 213.3 220 209.7 240 207.7C260 205.7 280 205.3 300 209C320 212.7 340 220.3 360 219.8C380 219.3 400 210.7 420 210.5C440 210.3 460 218.7 480 219.7C500 220.7 520 214.3 540 212.2C560 210 580 212 600 211.3C620 210.7 640 207.3 660 208.2C680 209 700 214 720 215.3C740 216.7 760 214.3 780 212.2C800 210 820 208 840 210.2C860 212.3 880 218.7 900 222.8C920 227 940 229 950 230L960 231L960 301L950 301C940 301 920 301 900 301C880 301 860 301 840 301C820 301 800 301 780 301C760 301 740 301 720 301C700 301 680 301 660 301C640 301 620 301 600 301C580 301 560 301 540 301C520 301 500 301 480 301C460 301 440 301 420 301C400 301 380 301 360 301C340 301 320 301 300 301C280 301 260 301 240 301C220 301 200 301 180 301C160 301 140 301 120 301C100 301 80 301 60 301C40 301 20 301 10 301L0 301Z" fill="#715df2"></path><path d="M0 231L10 232.8C20 234.7 40 238.3 60 237C80 235.7 100 229.3 120 228.7C140 228 160 233 180 231.5C200 230 220 222 240 220.5C260 219 280 224 300 227.2C320 230.3 340 231.7 360 234C380 236.3 400 239.7 420 236.2C440 232.7 460 222.3 480 221.7C500 221 520 230 540 230.2C560 230.3 580 221.7 600 221.3C620 221 640 229 660 230.7C680 232.3 700 227.7 720 226.3C740 225 760 227 780 226.5C800 226 820 223 840 225.3C860 227.7 880 235.3 900 238.7C920 242 940 241 950 240.5L960 240L960 301L950 301C940 301 920 301 900 301C880 301 860 301 840 301C820 301 800 301 780 301C760 301 740 301 720 301C700 301 680 301 660 301C640 301 620 301 600 301C580 301 560 301 540 301C520 301 500 301 480 301C460 301 440 301 420 301C400 301 380 301 360 301C340 301 320 301 300 301C280 301 260 301 240 301C220 301 200 301 180 301C160 301 140 301 120 301C100 301 80 301 60 301C40 301 20 301 10 301L0 301Z" fill="#6e54f5"></path><path d="M0 233L10 234.5C20 236 40 239 60 238.7C80 238.3 100 234.7 120 232.2C140 229.7 160 228.3 180 227.3C200 226.3 220 225.7 240 227.5C260 229.3 280 233.7 300 238.3C320 243 340 248 360 248.3C380 248.7 400 244.3 420 244.5C440 244.7 460 249.3 480 247C500 244.7 520 235.3 540 235C560 234.7 580 243.3 600 243.5C620 243.7 640 235.3 660 233.3C680 231.3 700 235.7 720 237.5C740 239.3 760 238.7 780 237.2C800 235.7 820 233.3 840 234.2C860 235 880 239 900 238.2C920 237.3 940 231.7 950 228.8L960 226L960 301L950 301C940 301 920 301 900 301C880 301 860 301 840 301C820 301 800 301 780 301C760 301 740 301 720 301C700 301 680 301 660 301C640 301 620 301 600 301C580 301 560 301 540 301C520 301 500 301 480 301C460 301 440 301 420 301C400 301 380 301 360 301C340 301 320 301 300 301C280 301 260 301 240 301C220 301 200 301 180 301C160 301 140 301 120 301C100 301 80 301 60 301C40 301 20 301 10 301L0 301Z" fill="#6b4bf8"></path><path d="M0 244L10 244.2C20 244.3 40 244.7 60 247.8C80 251 100 257 120 257C140 257 160 251 180 249.7C200 248.3 220 251.7 240 253.7C260 255.7 280 256.3 300 256.5C320 256.7 340 256.3 360 256.5C380 256.7 400 257.3 420 254.5C440 251.7 460 245.3 480 243.2C500 241 520 243 540 242.8C560 242.7 580 240.3 600 242.8C620 245.3 640 252.7 660 253.3C680 254 700 248 720 244.3C740 240.7 760 239.3 780 240.3C800 241.3 820 244.7 840 248.8C860 253 880 258 900 260.5C920 263 940 263 950 263L960 263L960 301L950 301C940 301 920 301 900 301C880 301 860 301 840 301C820 301 800 301 780 301C760 301 740 301 720 301C700 301 680 301 660 301C640 301 620 301 600 301C580 301 560 301 540 301C520 301 500 301 480 301C460 301 440 301 420 301C400 301 380 301 360 301C340 301 320 301 300 301C280 301 260 301 240 301C220 301 200 301 180 301C160 301 140 301 120 301C100 301 80 301 60 301C40 301 20 301 10 301L0 301Z" fill="#6940fa"></path><path d="M0 262L10 263.2C20 264.3 40 266.7 60 267.5C80 268.3 100 267.7 120 266.8C140 266 160 265 180 265.3C200 265.7 220 267.3 240 267.8C260 268.3 280 267.7 300 268.2C320 268.7 340 270.3 360 270.2C380 270 400 268 420 265C440 262 460 258 480 257.7C500 257.3 520 260.7 540 262.2C560 263.7 580 263.3 600 263.2C620 263 640 263 660 264.5C680 266 700 269 720 269.5C740 270 760 268 780 267.8C800 267.7 820 269.3 840 268.7C860 268 880 265 900 263.8C920 262.7 940 263.3 950 263.7L960 264L960 301L950 301C940 301 920 301 900 301C880 301 860 301 840 301C820 301 800 301 780 301C760 301 740 301 720 301C700 301 680 301 660 301C640 301 620 301 600 301C580 301 560 301 540 301C520 301 500 301 480 301C460 301 440 301 420 301C400 301 380 301 360 301C340 301 320 301 300 301C280 301 260 301 240 301C220 301 200 301 180 301C160 301 140 301 120 301C100 301 80 301 60 301C40 301 20 301 10 301L0 301Z" fill="#6733fc"></path><path d="M0 270L10 269.3C20 268.7 40 267.3 60 267.8C80 268.3 100 270.7 120 273.2C140 275.7 160 278.3 180 278.3C200 278.3 220 275.7 240 275.3C260 275 280 277 300 276.3C320 275.7 340 272.3 360 271.3C380 270.3 400 271.7 420 271.8C440 272 460 271 480 271.2C500 271.3 520 272.7 540 273.3C560 274 580 274 600 274.2C620 274.3 640 274.7 660 274.3C680 274 700 273 720 273.5C740 274 760 276 780 276.5C800 277 820 276 840 274.7C860 273.3 880 271.7 900 270.3C920 269 940 268 950 267.5L960 267L960 301L950 301C940 301 920 301 900 301C880 301 860 301 840 301C820 301 800 301 780 301C760 301 740 301 720 301C700 301 680 301 660 301C640 301 620 301 600 301C580 301 560 301 540 301C520 301 500 301 480 301C460 301 440 301 420 301C400 301 380 301 360 301C340 301 320 301 300 301C280 301 260 301 240 301C220 301 200 301 180 301C160 301 140 301 120 301C100 301 80 301 60 301C40 301 20 301 10 301L0 301Z" fill="#6622fe"></path><path d="M0 282L10 283.5C20 285 40 288 60 289.3C80 290.7 100 290.3 120 289.3C140 288.3 160 286.7 180 285.2C200 283.7 220 282.3 240 281.7C260 281 280 281 300 280.8C320 280.7 340 280.3 360 281.3C380 282.3 400 284.7 420 284.7C440 284.7 460 282.3 480 282.3C500 282.3 520 284.7 540 285C560 285.3 580 283.7 600 284C620 284.3 640 286.7 660 286.5C680 286.3 700 283.7 720 284C740 284.3 760 287.7 780 287C800 286.3 820 281.7 840 279.5C860 277.3 880 277.7 900 279.7C920 281.7 940 285.3 950 287.2L960 289L960 301L950 301C940 301 920 301 900 301C880 301 860 301 840 301C820 301 800 301 780 301C760 301 740 301 720 301C700 301 680 301 660 301C640 301 620 301 600 301C580 301 560 301 540 301C520 301 500 301 480 301C460 301 440 301 420 301C400 301 380 301 360 301C340 301 320 301 300 301C280 301 260 301 240 301C220 301 200 301 180 301C160 301 140 301 120 301C100 301 80 301 60 301C40 301 20 301 10 301L0 301Z" fill="#6600ff"></path></svg>