<svg id="visual" viewBox="0 0 960 300" width="960" height="300" xmlns="http://www.w3.org/2000/svg" xmlns:xlink="http://www.w3.org/1999/xlink" version="1.1"><rect x="0" y="0" width="960" height="300" fill="#6600ff"></rect><path d="M0 212L10.7 212.7C21.3 213.3 42.7 214.7 64 213.5C85.3 212.3 106.7 208.7 128 207.7C149.3 206.7 170.7 208.3 192 205.3C213.3 202.3 234.7 194.7 256 194.2C277.3 193.7 298.7 200.3 320 205C341.3 209.7 362.7 212.3 384 212.2C405.3 212 426.7 209 448 206.7C469.3 204.3 490.7 202.7 512 201.5C533.3 200.3 554.7 199.7 576 201C597.3 202.3 618.7 205.7 640 203.7C661.3 201.7 682.7 194.3 704 190.2C725.3 186 746.7 185 768 185.3C789.3 185.7 810.7 187.3 832 192.5C853.3 197.7 874.7 206.3 896 207.3C917.3 208.3 938.7 201.7 949.3 198.3L960 195L960 301L949.3 301C938.7 301 917.3 301 896 301C874.7 301 853.3 301 832 301C810.7 301 789.3 301 768 301C746.7 301 725.3 301 704 301C682.7 301 661.3 301 640 301C618.7 301 597.3 301 576 301C554.7 301 533.3 301 512 301C490.7 301 469.3 301 448 301C426.7 301 405.3 301 384 301C362.7 301 341.3 301 320 301C298.7 301 277.3 301 256 301C234.7 301 213.3 301 192 301C170.7 301 149.3 301 128 301C106.7 301 85.3 301 64 301C42.7 301 21.3 301 10.7 301L0 301Z" fill="#acecec"></path><path d="M0 200L10.7 201.7C21.3 203.3 42.7 206.7 64 210.3C85.3 214 106.7 218 128 217.7C149.3 217.3 170.7 212.7 192 214C213.3 215.3 234.7 222.7 256 222.8C277.3 223 298.7 216 320 214.5C341.3 213 362.7 217 384 218.7C405.3 220.3 426.7 219.7 448 220C469.3 220.3 490.7 221.7 512 222.5C533.3 223.3 554.7 223.7 576 224.2C597.3 224.7 618.7 225.3 640 224C661.3 222.7 682.7 219.3 704 219.8C725.3 220.3 746.7 224.7 768 222.2C789.3 219.7 810.7 210.3 832 206C853.3 201.7 874.7 202.3 896 202.5C917.3 202.7 938.7 202.3 949.3 202.2L960 202L960 301L949.3 301C938.7 301 917.3 301 896 301C874.7 301 853.3 301 832 301C810.7 301 789.3 301 768 301C746.7 301 725.3 301 704 301C682.7 301 661.3 301 640 301C618.7 301 597.3 301 576 301C554.7 301 533.3 301 512 301C490.7 301 469.3 301 448 301C426.7 301 405.3 301 384 301C362.7 301 341.3 301 320 301C298.7 301 277.3 301 256 301C234.7 301 213.3 301 192 301C170.7 301 149.3 301 128 301C106.7 301 85.3 301 64 301C42.7 301 21.3 301 10.7 301L0 301Z" fill="#91e4e4"></path><path d="M0 248L10.7 245C21.3 242 42.7 236 64 234.3C85.3 232.7 106.7 235.3 128 235.8C149.3 236.3 170.7 234.7 192 235.7C213.3 236.7 234.7 240.3 256 240.7C277.3 241 298.7 238 320 236.5C341.3 235 362.7 235 384 233.8C405.3 232.7 426.7 230.3 448 230C469.3 229.7 490.7 231.3 512 234.2C533.3 237 554.7 241 576 243.8C597.3 246.7 618.7 248.3 640 246C661.3 243.7 682.7 237.3 704 236.8C725.3 236.3 746.7 241.7 768 244.5C789.3 247.3 810.7 247.7 832 248C853.3 248.3 874.7 248.7 896 244.5C917.3 240.3 938.7 231.7 949.3 227.3L960 223L960 301L949.3 301C938.7 301 917.3 301 896 301C874.7 301 853.3 301 832 301C810.7 301 789.3 301 768 301C746.7 301 725.3 301 704 301C682.7 301 661.3 301 640 301C618.7 301 597.3 301 576 301C554.7 301 533.3 301 512 301C490.7 301 469.3 301 448 301C426.7 301 405.3 301 384 301C362.7 301 341.3 301 320 301C298.7 301 277.3 301 256 301C234.7 301 213.3 301 192 301C170.7 301 149.3 301 128 301C106.7 301 85.3 301 64 301C42.7 301 21.3 301 10.7 301L0 301Z" fill="#74dcdc"></path><path d="M0 249L10.7 250.3C21.3 251.7 42.7 254.3 64 253.8C85.3 253.3 106.7 249.7 128 247.5C149.3 245.3 170.7 244.7 192 248C213.3 251.3 234.7 258.7 256 260.2C277.3 261.7 298.7 257.3 320 256.3C341.3 255.3 362.7 257.7 384 258.8C405.3 260 426.7 260 448 260.8C469.3 261.7 490.7 263.3 512 262.8C533.3 262.3 554.7 259.7 576 258.2C597.3 256.7 618.7 256.3 640 255.2C661.3 254 682.7 252 704 250.5C725.3 249 746.7 248 768 248.2C789.3 248.3 810.7 249.7 832 250.5C853.3 251.3 874.7 251.7 896 254.3C917.3 257 938.7 262 949.3 264.5L960 267L960 301L949.3 301C938.7 301 917.3 301 896 301C874.7 301 853.3 301 832 301C810.7 301 789.3 301 768 301C746.7 301 725.3 301 704 301C682.7 301 661.3 301 640 301C618.7 301 597.3 301 576 301C554.7 301 533.3 301 512 301C490.7 301 469.3 301 448 301C426.7 301 405.3 301 384 301C362.7 301 341.3 301 320 301C298.7 301 277.3 301 256 301C234.7 301 213.3 301 192 301C170.7 301 149.3 301 128 301C106.7 301 85.3 301 64 301C42.7 301 21.3 301 10.7 301L0 301Z" fill="#50d4d4"></path><path d="M0 265L10.7 265.2C21.3 265.3 42.7 265.7 64 268.8C85.3 272 106.7 278 128 280.5C149.3 283 170.7 282 192 281.3C213.3 280.7 234.7 280.3 256 278.5C277.3 276.7 298.7 273.3 320 270.8C341.3 268.3 362.7 266.7 384 268.5C405.3 270.3 426.7 275.7 448 277.5C469.3 279.3 490.7 277.7 512 275.8C533.3 274 554.7 272 576 272.2C597.3 272.3 618.7 274.7 640 275C661.3 275.3 682.7 273.7 704 273.3C725.3 273 746.7 274 768 275C789.3 276 810.7 277 832 275.7C853.3 274.3 874.7 270.7 896 269.2C917.3 267.7 938.7 268.3 949.3 268.7L960 269L960 301L949.3 301C938.7 301 917.3 301 896 301C874.7 301 853.3 301 832 301C810.7 301 789.3 301 768 301C746.7 301 725.3 301 704 301C682.7 301 661.3 301 640 301C618.7 301 597.3 301 576 301C554.7 301 533.3 301 512 301C490.7 301 469.3 301 448 301C426.7 301 405.3 301 384 301C362.7 301 341.3 301 320 301C298.7 301 277.3 301 256 301C234.7 301 213.3 301 192 301C170.7 301 149.3 301 128 301C106.7 301 85.3 301 64 301C42.7 301 21.3 301 10.7 301L0 301Z" fill="#00cccc"></path></svg>